<svg xmlns="http://www.w3.org/2000/svg" xml:space="preserve" style="fill-rule:evenodd;clip-rule:evenodd;stroke-linejoin:round;stroke-miterlimit:2" viewBox="0 0 1182 788">
  <path d="M6.522 5.934h283.602v189.07H6.522z" style="fill:#074ea2;fill-rule:nonzero" transform="translate(-27.175 -24.725) scale(4.16667)"/>
  <path d="m142.28 47.129 5.984-4.367 5.985 4.367-2.278-7.062 6.078-4.367h-7.492l-2.293-7.149-2.293 7.156-7.488-.007 6.074 4.367-2.277 7.062ZM111.311 55.45l5.984-4.368 5.981 4.368-2.274-7.063 6.075-4.367h-7.492l-2.293-7.156-2.293 7.164-7.489-.008 6.074 4.367-2.273 7.063ZM94.635 59.575l-2.293 7.164-7.488-.008 6.074 4.367-2.277 7.063 5.984-4.368 5.985 4.368-2.278-7.063 6.075-4.367h-7.489l-2.293-7.156ZM86.323 104.723l5.98 4.367-2.273-7.062 6.074-4.367h-7.488l-2.293-7.157-2.293 7.172-7.492-.015 6.078 4.367-2.278 7.062 5.985-4.367ZM96.928 128.684l-2.293-7.156-2.293 7.164-7.488-.008 6.074 4.367-2.277 7.063 5.984-4.375 5.985 4.375-2.278-7.063 6.075-4.367h-7.489ZM119.631 151.387l-2.293-7.148-2.289 7.156-7.492-.008 6.074 4.367-2.273 7.063 5.984-4.367 5.981 4.367-2.274-7.063 6.075-4.367h-7.493ZM150.561 159.614l-2.293-7.157-2.289 7.165-7.492-.008 6.074 4.367-2.273 7.062 5.984-4.367 5.98 4.367-2.277-7.062 6.078-4.367h-7.492ZM181.491 151.387l-2.289-7.148-2.297 7.156-7.485-.008 6.071 4.367-2.274 7.063 5.985-4.367 5.984 4.367-2.281-7.063 6.078-4.367h-7.492ZM204.202 128.684l-2.297-7.156-2.297 7.164-7.484-.008 6.078 4.367-2.282 7.063 5.985-4.375 5.984 4.375-2.281-7.063 6.078-4.367h-7.484ZM219.913 97.575h-7.493l-2.296-7.157-2.289 7.164-7.493-.007 6.078 4.367-2.273 7.062 5.977-4.375 5.984 4.375-2.273-7.062 6.078-4.367ZM195.92 78.067l5.985-4.367 5.984 4.367-2.281-7.063 6.078-4.359h-7.484l-2.297-7.156-2.297 7.164-7.484-.008 6.078 4.359-2.282 7.063ZM179.288 36.872l-2.289 7.164-7.493-.016 6.071 4.375-2.274 7.062 5.992-4.375 5.977 4.375-2.273-7.062 6.078-4.375h-7.5l-2.289-7.148Z" style="fill:#fff200;fill-rule:nonzero" transform="translate(-27.175 -24.725) scale(4.16667)"/>
</svg>
